<svg xmlns="http://www.w3.org/2000/svg" width="414" height="736">
  <path fill="#f2bdad" stroke="#f2bdad" stroke-width="1.51" d="M163 411l-87-87v87z"/>
  <path fill="#fad1bf" stroke="#fad1bf" stroke-width="1.51" d="M163 411v-87H76z"/>
  <path fill="#e29188" stroke="#e29188" stroke-width="1.51" d="M76 324h-87l87 87z"/>
  <path fill="#c58585" stroke="#c58585" stroke-width="1.51" d="M-11 324v87h87z"/>
  <path fill="#f4b197" stroke="#f4b197" stroke-width="1.51" d="M163 324l-87-87v87z"/>
  <path fill="#c67970" stroke="#c67970" stroke-width="1.51" d="M76 324l-86-87-1 87z"/>
  <path fill="#e4b6ab" stroke="#e4b6ab" stroke-width="1.51" d="M76 411v87l87-87z"/>
  <path fill="#d28c8a" stroke="#d28c8a" stroke-width="1.51" d="M-11 411l87 87v-87z"/>
  <path fill="#f9bc9f" stroke="#f9bc9f" stroke-width="1.51" d="M163 324v-87H76z"/>
  <path fill="#dec6bd" stroke="#dec6bd" stroke-width="1.51" d="M76 498h87v-87z"/>
  <path fill="#fce4d6" stroke="#fce4d6" stroke-width="1.51" d="M163 324h87l-87-87z"/>
  <path fill="#faefe9" stroke="#faefe9" stroke-width="1.51" d="M163 411l87-87h-87z"/>
  <path fill="#edf2f6" stroke="#edf2f6" stroke-width="1.51" d="M250 411v-87l-87 87z"/>
  <path fill="#e7e9eb" stroke="#e7e9eb" stroke-width="1.51" d="M163 498l87-87h-87z"/>
  <path fill="#dd7c6b" stroke="#dd7c6b" stroke-width="1.51" d="M76 237h-86l86 87z"/>
  <path fill="#ae7a7f" stroke="#ae7a7f" stroke-width="1.51" d="M-11 411v87h87z"/>
  <path fill="#f5dbd0" stroke="#f5dbd0" stroke-width="1.51" d="M250 324v-87h-87z"/>
  <path fill="#d2e5ef" stroke="#d2e5ef" stroke-width="1.51" d="M163 498h87v-87z"/>
  <path fill="#b57c7e" stroke="#b57c7e" stroke-width="1.51" d="M-11 324h-87l87 87z"/>
  <path fill="#9b727c" stroke="#9b727c" stroke-width="1.51" d="M-11 411l-86 87h86z"/>
  <path fill="#b4726d" stroke="#b4726d" stroke-width="1.51" d="M-97 237l-1 87h87z"/>
  <path fill="#b27e82" stroke="#b27e82" stroke-width="1.51" d="M-98 324v87h87z"/>
  <path fill="#d46453" stroke="#d46453" stroke-width="1.51" d="M76 237v-87l-86 87z"/>
  <path fill="#b16861" stroke="#b16861" stroke-width="1.51" d="M-10 237h-87l86 87z"/>
  <path fill="#eb9070" stroke="#eb9070" stroke-width="1.51" d="M163 237l-87-87v87z"/>
  <path fill="#ee987a" stroke="#ee987a" stroke-width="1.51" d="M163 150H76l87 87z"/>
  <path fill="#c5a3a1" stroke="#c5a3a1" stroke-width="1.51" d="M76 498v87l87-87z"/>
  <path fill="#c3d5e0" stroke="#c3d5e0" stroke-width="1.51" d="M163 498v87l87-87z"/>
  <path fill="#b47a80" stroke="#b47a80" stroke-width="1.51" d="M-11 498l87 87v-87z"/>
  <path fill="#f8c3ad" stroke="#f8c3ad" stroke-width="1.51" d="M250 237l-87-87v87z"/>
  <path fill="#bcaeb1" stroke="#bcaeb1" stroke-width="1.51" d="M76 585h87v-87z"/>
  <path fill="#b4d1e4" stroke="#b4d1e4" stroke-width="1.51" d="M337 411v-87l-87 87z"/>
  <path fill="#cfdfe8" stroke="#cfdfe8" stroke-width="1.51" d="M250 411l87-87h-87z"/>
  <path fill="#d4d4d5" stroke="#d4d4d5" stroke-width="1.51" d="M250 324h87l-87-87z"/>
  <path fill="#bbd9ea" stroke="#bbd9ea" stroke-width="1.51" d="M250 498l87-87h-87z"/>
  <path fill="#aa5149" stroke="#aa5149" stroke-width="1.51" d="M-11 150l-86 87h87z"/>
  <path fill="#8f6474" stroke="#8f6474" stroke-width="1.51" d="M-11 498v87h87z"/>
  <path fill="#a5777f" stroke="#a5777f" stroke-width="1.51" d="M-98 411l1 87 86-87z"/>
  <path fill="#b54a42" stroke="#b54a42" stroke-width="1.51" d="M76 150h-87l1 87z"/>
  <path fill="#876675" stroke="#876675" stroke-width="1.51" d="M-97 498l86 87v-87z"/>
  <path fill="#d3b4ad" stroke="#d3b4ad" stroke-width="1.51" d="M337 237l-87-87v87z"/>
  <path fill="#eeb8aa" stroke="#eeb8aa" stroke-width="1.51" d="M250 237v-87h-87z"/>
  <path fill="#adcce2" stroke="#adcce2" stroke-width="1.51" d="M163 585h87v-87z"/>
  <path fill="#97c4de" stroke="#97c4de" stroke-width="1.51" d="M250 498h87v-87z"/>
  <path fill="#bfbbbf" stroke="#bfbbbf" stroke-width="1.51" d="M337 324v-87h-87z"/>
  <path fill="#95c5df" stroke="#95c5df" stroke-width="1.51" d="M250 585l87-87h-87z"/>
  <path fill="#a78693" stroke="#a78693" stroke-width="1.51" d="M76 585v86l87-86z"/>
  <path fill="#a4b6d0" stroke="#a4b6d0" stroke-width="1.51" d="M163 585v86l87-86z"/>
  <path fill="#975e73" stroke="#975e73" stroke-width="1.51" d="M-11 585l87 86v-86z"/>
  <path fill="#a591a4" stroke="#a591a4" stroke-width="1.51" d="M76 671h87v-86z"/>
  <path fill="#a4443f" stroke="#a4443f" stroke-width="1.51" d="M-11 150h-86v87z"/>
  <path fill="#ae5d54" stroke="#ae5d54" stroke-width="1.51" d="M-97 237v-87l-1 174z"/>
  <path fill="#784967" stroke="#784967" stroke-width="1.51" d="M-11 585v87l87-1z"/>
  <path fill="#7c5d71" stroke="#7c5d71" stroke-width="1.51" d="M-97 498l-1 87h87z"/>
  <path fill="#916d79" stroke="#916d79" stroke-width="1.51" d="M-98 411v174l1-87z"/>
  <path fill="#a82e32" stroke="#a82e32" stroke-width="1.51" d="M76 150l-87-86v86z"/>
  <path fill="#972930" stroke="#972930" stroke-width="1.51" d="M-11 150V64l-86 86z"/>
  <path fill="#d86954" stroke="#d86954" stroke-width="1.51" d="M163 150L76 63v87z"/>
  <path fill="#db7460" stroke="#db7460" stroke-width="1.51" d="M163 63H76l87 87z"/>
  <path fill="#e99d8f" stroke="#e99d8f" stroke-width="1.51" d="M250 150l-87-87v87z"/>
  <path fill="#bb989a" stroke="#bb989a" stroke-width="1.51" d="M337 237v-87h-87z"/>
  <path fill="#de958e" stroke="#de958e" stroke-width="1.51" d="M250 150V63h-87z"/>
  <path fill="#73a7cf" stroke="#73a7cf" stroke-width="1.51" d="M250 671l87-86h-87z"/>
  <path fill="#6eacd1" stroke="#6eacd1" stroke-width="1.51" d="M250 585h87v-87z"/>
  <path fill="#a398af" stroke="#a398af" stroke-width="1.51" d="M337 324l86-87h-86z"/>
  <path fill="#a38396" stroke="#a38396" stroke-width="1.51" d="M337 237h86l-86-87z"/>
  <path fill="#9caccf" stroke="#9caccf" stroke-width="1.51" d="M337 411l87-87h-87z"/>
  <path fill="#8a99bb" stroke="#8a99bb" stroke-width="1.51" d="M424 411v-87l-87 87z"/>
  <path fill="#87a7d0" stroke="#87a7d0" stroke-width="1.51" d="M424 411h-87v87z"/>
  <path fill="#6e8db5" stroke="#6e8db5" stroke-width="1.51" d="M424 498v-87l-87 87z"/>
  <path fill="#b92b31" stroke="#b92b31" stroke-width="1.51" d="M76 63l-87 1 87 86z"/>
  <path fill="#95afd4" stroke="#95afd4" stroke-width="1.51" d="M163 671h87v-86z"/>
  <path fill="#948da6" stroke="#948da6" stroke-width="1.51" d="M424 324l-1-87-86 87z"/>
  <path fill="#6b4b68" stroke="#6b4b68" stroke-width="1.51" d="M-98 585l87 87v-87z"/>
  <path fill="#926779" stroke="#926779" stroke-width="1.51" d="M76 671v87l87-87z"/>
  <path fill="#9197b5" stroke="#9197b5" stroke-width="1.51" d="M163 671v87l87-87z"/>
  <path fill="#c08586" stroke="#c08586" stroke-width="1.51" d="M337 64l-87-1v87z"/>
  <path fill="#5d94c5" stroke="#5d94c5" stroke-width="1.51" d="M337 585l87-87h-87z"/>
  <path fill="#976078" stroke="#976078" stroke-width="1.51" d="M424 150l-87-86v86z"/>
  <path fill="#b28187" stroke="#b28187" stroke-width="1.51" d="M337 150V64l-87 86z"/>
  <path fill="#6288b3" stroke="#6288b3" stroke-width="1.51" d="M250 758l87-87h-87z"/>
  <path fill="#5390c2" stroke="#5390c2" stroke-width="1.51" d="M250 671h87v-86z"/>
  <path fill="#4377a8" stroke="#4377a8" stroke-width="1.51" d="M337 585h87v-87z"/>
  <path fill="#901929" stroke="#901929" stroke-width="1.51" d="M-11 64l-86-1v87z"/>
  <path fill="#9e3636" stroke="#9e3636" stroke-width="1.51" d="M-97 150l-1-173v347z"/>
  <path fill="#780422" stroke="#780422" stroke-width="1.51" d="M-11-24l-86 87 86 1z"/>
  <path fill="#664264" stroke="#664264" stroke-width="1.51" d="M-98 585v87h87z"/>
  <path fill="#906275" stroke="#906275" stroke-width="1.51" d="M423 237l1-87h-87z"/>
  <path fill="#88616e" stroke="#88616e" stroke-width="1.51" d="M511 237l-87-87-1 87z"/>
  <path fill="#27659f" stroke="#27659f" stroke-width="1.51" d="M423 671l1-86h-87z"/>
  <path fill="#a0192a" stroke="#a0192a" stroke-width="1.51" d="M76 63v-86l-87 87z"/>
  <path fill="#b84e45" stroke="#b84e45" stroke-width="1.51" d="M163 63L76-23v86z"/>
  <path fill="#b25f55" stroke="#b25f55" stroke-width="1.51" d="M163-23H76l87 86z"/>
  <path fill="#c8827e" stroke="#c8827e" stroke-width="1.51" d="M163-23v86h87z"/>
  <path fill="#5f2945" stroke="#5f2945" stroke-width="1.51" d="M-11 758h87l-87-86z"/>
  <path fill="#803f5a" stroke="#803f5a" stroke-width="1.51" d="M-11 672l87 86v-87z"/>
  <path fill="#b37e82" stroke="#b37e82" stroke-width="1.51" d="M250-23h-87l87 86z"/>
  <path fill="#8d707e" stroke="#8d707e" stroke-width="1.51" d="M76 758h87v-87z"/>
  <path fill="#8b7687" stroke="#8b7687" stroke-width="1.51" d="M424 324l87-87h-88z"/>
  <path fill="#818ba9" stroke="#818ba9" stroke-width="1.51" d="M424 411h86l-86-87z"/>
  <path fill="#7284a6" stroke="#7284a6" stroke-width="1.51" d="M424 498l86-87h-86z"/>
  <path fill="#667fa3" stroke="#667fa3" stroke-width="1.51" d="M511 498l-1-87-86 87z"/>
  <path fill="#868aa5" stroke="#868aa5" stroke-width="1.51" d="M510 411l1-87h-87z"/>
  <path fill="#572e4f" stroke="#572e4f" stroke-width="1.51" d="M-98 672l87 86v-86z"/>
  <path fill="#966e7a" stroke="#966e7a" stroke-width="1.51" d="M337-23h-87v86z"/>
  <path fill="#936776" stroke="#936776" stroke-width="1.51" d="M337-23l-87 86 87 1z"/>
  <path fill="#808dad" stroke="#808dad" stroke-width="1.51" d="M163 758h87v-87z"/>
  <path fill="#2a6fb1" stroke="#2a6fb1" stroke-width="1.51" d="M337 671h86l-86-86z"/>
  <path fill="#7a0422" stroke="#7a0422" stroke-width="1.51" d="M76-23l-87-1v88z"/>
  <path fill="#8e1327" stroke="#8e1327" stroke-width="1.51" d="M76-110l-87 86 87 1z"/>
  <path fill="#a64842" stroke="#a64842" stroke-width="1.51" d="M76-110v87h87z"/>
  <path fill="#8a7f94" stroke="#8a7f94" stroke-width="1.51" d="M511 324v-87l-87 87z"/>
  <path fill="#4b729c" stroke="#4b729c" stroke-width="1.51" d="M510 584l1-86h-87z"/>
  <path fill="#7987a8" stroke="#7987a8" stroke-width="1.51" d="M510 411l1 87V324z"/>
  <path fill="#3c6996" stroke="#3c6996" stroke-width="1.51" d="M424 585l86-1-86-86z"/>
  <path fill="#1e5b9a" stroke="#1e5b9a" stroke-width="1.51" d="M337 759l86-88h-86z"/>
  <path fill="#75344b" stroke="#75344b" stroke-width="1.51" d="M510 63h-86v87z"/>
  <path fill="#81425b" stroke="#81425b" stroke-width="1.51" d="M424 150V63l-87 1z"/>
  <path fill="#21588d" stroke="#21588d" stroke-width="1.51" d="M510 671v-87l-86 1z"/>
  <path fill="#860824" stroke="#860824" stroke-width="1.51" d="M-97 63l-1-86 1 173z"/>
  <path fill="#690020" stroke="#690020" stroke-width="1.51" d="M-11-24l-87 1 1 86z"/>
  <path fill="#4e2442" stroke="#4e2442" stroke-width="1.51" d="M-98 672v86h87z"/>
  <path fill="#af5e55" stroke="#af5e55" stroke-width="1.51" d="M163-110H76l87 87z"/>
  <path fill="#784767" stroke="#784767" stroke-width="1.51" d="M424 63l-87-86v87z"/>
  <path fill="#426f9b" stroke="#426f9b" stroke-width="1.51" d="M250 758l87 1v-88z"/>
  <path fill="#195088" stroke="#195088" stroke-width="1.51" d="M423 671h87l-86-86z"/>
  <path fill="#5a7aa0" stroke="#5a7aa0" stroke-width="1.51" d="M250 845l87-86-87-1z"/>
  <path fill="#8788a1" stroke="#8788a1" stroke-width="1.51" d="M163 845l87-87h-87z"/>
  <path fill="#865967" stroke="#865967" stroke-width="1.51" d="M76 845l87-87H76z"/>
  <path fill="#743149" stroke="#743149" stroke-width="1.51" d="M76 845v-87h-87z"/>
  <path fill="#855564" stroke="#855564" stroke-width="1.51" d="M511 237v-87h-87z"/>
  <path fill="#67001f" stroke="#67001f" stroke-width="1.51" d="M-11-24l-87-86v87z"/>
  <path fill="#b57a7a" stroke="#b57a7a" stroke-width="1.51" d="M163-110v87h87z"/>
  <path fill="#5d2642" stroke="#5d2642" stroke-width="1.51" d="M-11 845h87l-87-87z"/>
  <path fill="#af7d81" stroke="#af7d81" stroke-width="1.51" d="M250-110h-87l87 87z"/>
  <path fill="#8a6d7b" stroke="#8a6d7b" stroke-width="1.51" d="M76 845h87v-87z"/>
  <path fill="#0c3d73" stroke="#0c3d73" stroke-width="1.51" d="M424 758l86-87h-87z"/>
  <path fill="#2a6192" stroke="#2a6192" stroke-width="1.51" d="M510 584v87l1-173z"/>
  <path fill="#770422" stroke="#770422" stroke-width="1.51" d="M76-110h-87v86z"/>
  <path fill="#4c213f" stroke="#4c213f" stroke-width="1.51" d="M-97 845h86v-87z"/>
  <path fill="#926d79" stroke="#926d79" stroke-width="1.51" d="M337-23l-87-87v87z"/>
  <path fill="#7f6072" stroke="#7f6072" stroke-width="1.51" d="M337-110h-87l87 87z"/>
  <path fill="#0c3e75" stroke="#0c3e75" stroke-width="1.51" d="M337 759l87-1-1-87z"/>
  <path fill="#7e8aa9" stroke="#7e8aa9" stroke-width="1.51" d="M163 845h87v-87z"/>
  <path fill="#5e2743" stroke="#5e2743" stroke-width="1.51" d="M510 63l-86-86v86z"/>
  <path fill="#5a2f4f" stroke="#5a2f4f" stroke-width="1.51" d="M424 63v-86h-87z"/>
  <path fill="#0b3c72" stroke="#0b3c72" stroke-width="1.51" d="M423 845l1-87-87 1z"/>
  <path fill="#7b3e52" stroke="#7b3e52" stroke-width="1.51" d="M511 150l-1-87-86 87z"/>
  <path fill="#4c213f" stroke="#4c213f" stroke-width="1.51" d="M-98 758l1 87 86-87z"/>
  <path fill="#67001f" stroke="#67001f" stroke-width="1.51" d="M-11-110h-87l87 86z"/>
  <path fill="#654063" stroke="#654063" stroke-width="1.51" d="M424-23l-87-87v87z"/>
  <path fill="#406c98" stroke="#406c98" stroke-width="1.51" d="M250 845h87v-86z"/>
  <path fill="#6c2c46" stroke="#6c2c46" stroke-width="1.51" d="M511 150l-1-173v86z"/>
  <path fill="#4f2240" stroke="#4f2240" stroke-width="1.51" d="M510 63v-86h-86z"/>
  <path fill="#562e4e" stroke="#562e4e" stroke-width="1.51" d="M424-23v-87h-87z"/>
  <path fill="#114781" stroke="#114781" stroke-width="1.51" d="M510 671l1 174V498z"/>
  <path fill="#063264" stroke="#063264" stroke-width="1.51" d="M424 758h86v-87z"/>
  <path fill="#053061" stroke="#053061" stroke-width="1.51" d="M423 845l87-87h-86z"/>
  <path fill="#174d87" stroke="#174d87" stroke-width="1.51" d="M337 845h86l-86-86z"/>
  <path fill="#8788a1" stroke="#8788a1" stroke-width="1.51" d="M163 845v87l87-87z"/>
  <path fill="#5a7aa0" stroke="#5a7aa0" stroke-width="1.51" d="M250 845v87l87-87z"/>
  <path fill="#174d87" stroke="#174d87" stroke-width="1.51" d="M337 845v87l86-87z"/>
  <path fill="#865967" stroke="#865967" stroke-width="1.51" d="M76 845v87l87-87z"/>
  <path fill="#743149" stroke="#743149" stroke-width="1.51" d="M-11 845l87 87v-87z"/>
  <path fill="#5d2642" stroke="#5d2642" stroke-width="1.51" d="M-11 932h87l-87-87z"/>
  <path fill="#8a6d7b" stroke="#8a6d7b" stroke-width="1.51" d="M76 932h87v-87z"/>
  <path fill="#4c213f" stroke="#4c213f" stroke-width="1.51" d="M510-23l-86-87v87zM-97 845l86 87v-87z"/>
  <path fill="#7e8aa9" stroke="#7e8aa9" stroke-width="1.51" d="M163 932h87v-87z"/>
  <path fill="#4c213f" stroke="#4c213f" stroke-width="1.51" d="M-97 845v87h86zM-98 758l1 174v-87z"/>
  <path fill="#406c98" stroke="#406c98" stroke-width="1.51" d="M250 932h87v-87z"/>
  <path fill="#053061" stroke="#053061" stroke-width="1.51" d="M423 845h88l-1-87z"/>
  <path fill="#4f2240" stroke="#4f2240" stroke-width="1.51" d="M511 150l-1-260v87z"/>
  <path fill="#4c213f" stroke="#4c213f" stroke-width="1.51" d="M510-23v-87h-86z"/>
  <path fill="#053061" stroke="#053061" stroke-width="1.51" d="M424 932l87-87h-88zM510 758l1 87-1-174z"/>
  <path fill="#0b3c72" stroke="#0b3c72" stroke-width="1.51" d="M337 932h87l-1-87z"/>
  <path fill="#053061" stroke="#053061" stroke-width="1.51" d="M424 932h87v-87z"/>
</svg>
